<svg width="1374" height="63" viewBox="0 0 1374 63" fill="none" xmlns="http://www.w3.org/2000/svg">
<path d="M0.723215 62V1.68747H37.3415L64.0514 27.5357V1.68747H94.2076V62H63.1898L31.3103 31.8437V62H0.723215ZM139.462 0.825863H144.632C163.846 0.825863 187.281 7.20176 187.281 30.1205V33.567C187.281 56.3996 163.846 62.8616 144.632 62.8616H139.462C120.248 62.8616 96.8126 56.3996 96.8126 33.567V30.1205C96.8126 7.20176 120.248 0.825863 139.462 0.825863ZM140.324 43.9062H143.77C151.352 43.9062 157.987 40.1152 157.987 31.8437C157.987 23.5723 151.352 19.7812 143.77 19.7812H140.324C132.742 19.7812 126.107 23.5723 126.107 31.8437C126.107 40.1152 132.742 43.9062 140.324 43.9062ZM212.317 62V19.7812H188.106V1.68747H267.374V19.7812H242.473V62H212.317ZM346.638 31.5853C354.996 31.9299 362.147 38.1335 362.147 46.8357V62H331.129V52.0915C331.129 45.5433 327.425 41.9245 321.221 41.9245H300.973V62H270.817V1.68747H338.625C352.842 1.68747 361.286 6.16783 361.286 16.3348C361.286 25.1232 354.91 31.5853 346.638 31.5853ZM300.973 25.554H327.338C329.406 25.554 331.129 23.9169 331.129 21.8491C331.129 19.6951 329.406 18.058 327.338 18.058H300.973V25.554ZM365.56 62V1.68747H439.658V18.058H395.716V23.2277H439.658V39.1674H395.716V44.7678H439.658V62H365.56ZM464.679 62V1.68747H538.777V18.058H494.835V23.2277H538.777V39.1674H494.835V44.7678H538.777V62H464.679ZM542.257 62V1.68747H578.875L605.585 27.5357V1.68747H635.741V62H604.724L572.844 31.8437V62H542.257ZM714.771 62L712.703 55.4518C705.38 60.7076 694.006 62.8616 685.046 62.8616H679.876C660.404 62.8616 638.346 56.3996 638.346 32.7053V30.9821C638.346 7.28792 660.404 0.825863 679.876 0.825863H685.046C700.985 0.825863 732.003 3.84149 732.003 25.3817H701.847C699.521 20.3844 692.886 19.0058 687.372 19.0058H683.925C677.463 19.0058 669.364 21.5906 669.364 31.8437C669.364 42.0969 677.463 44.6817 683.925 44.6817H687.372C692.455 44.6817 698.056 43.4754 700.813 39.4259H686.769V28.8281H732.003V62H714.771ZM762.152 1.68747H810.402L840.558 62H807.386L802.734 52.5223H769.82L765.168 62H731.996L762.152 1.68747ZM786.277 18.9196L778.609 34.4286H793.859L786.277 18.9196ZM909.222 62L907.154 55.4518C899.83 60.7076 888.457 62.8616 879.496 62.8616H874.327C854.854 62.8616 832.797 56.3996 832.797 32.7053V30.9821C832.797 7.28792 854.854 0.825863 874.327 0.825863H879.496C895.436 0.825863 926.454 3.84149 926.454 25.3817H896.298C893.971 20.3844 887.337 19.0058 881.823 19.0058H878.376C871.914 19.0058 863.815 21.5906 863.815 31.8437C863.815 42.0969 871.914 44.6817 878.376 44.6817H881.823C886.906 44.6817 892.507 43.4754 895.264 39.4259H881.219V28.8281H926.454V62H909.222ZM929.896 62V1.68747H1003.99V18.058H960.053V23.2277H1003.99V39.1674H960.053V44.7678H1003.99V62H929.896ZM1067.79 62H1055.72L1037.63 25.8125V62H1007.47V1.68747H1046.68L1061.67 32.7053L1076.83 1.68747H1116.04V62H1085.88V25.8125L1067.79 62ZM1119.47 62V1.68747H1193.56V18.058H1149.62V23.2277H1193.56V39.1674H1149.62V44.7678H1193.56V62H1119.47ZM1197.04 62V1.68747H1233.66L1260.37 27.5357V1.68747H1290.53V62H1259.51L1227.63 31.8437V62H1197.04ZM1318.19 62V19.7812H1293.98V1.68747H1373.24V19.7812H1348.34V62H1318.19Z" fill="white"/>
</svg>
