<svg width="92" height="35" viewBox="0 0 92 35" fill="none" xmlns="http://www.w3.org/2000/svg">
<g id="Calque_1" clip-path="url(#clip0_482_181)">
<path id="Vector" d="M91.9819 11.3749C91.61 7.17772 86.3445 4.03963 77.164 2.54904C68.9232 1.21535 58.3921 1.31341 47.176 2.80401C45.9819 2.96091 44.7683 3.13743 43.5547 3.33356L43.5938 3.74544C44.7487 3.56892 45.884 3.3924 46.9998 3.25511C47.7436 3.15704 48.4483 3.07859 49.1726 2.98053C71.0568 0.470053 88.5368 4.1377 89.2023 11.826C89.8679 19.5143 73.5232 28.556 51.7955 32.9689C51.0713 33.1258 50.3666 33.2631 49.6423 33.3808C48.5266 33.5769 47.3913 33.773 46.2364 33.9692L46.2755 34.3811C47.4892 34.1849 48.7028 33.9888 49.8968 33.7534C61.0543 31.7137 71.3113 28.4971 79.1215 24.6137C87.793 20.2793 92.3734 15.5917 92.0211 11.3945L91.9819 11.3749Z" fill="#FDC609"/>
<path id="Vector_2" d="M48.4247 30.6346C47.2699 30.8112 46.1345 30.9877 45.0188 31.125C44.275 31.223 43.5703 31.3211 42.846 31.3995C20.9618 33.9296 3.48177 30.2424 2.81624 22.5541C2.13113 14.8657 18.4954 5.82411 40.223 1.41116C40.9473 1.27387 41.652 1.11697 42.3762 0.99929C43.492 0.803159 44.6273 0.607029 45.7822 0.410898L45.743 -0.000976562C44.5294 0.195154 43.3158 0.391285 42.1218 0.626642C30.9643 2.6664 20.7073 5.88294 12.8971 9.76633C4.2256 14.1008 -0.354828 18.808 0.0170873 22.9855C0.389002 27.1827 5.65453 30.3208 14.835 31.8114C23.0758 33.1451 33.6069 33.047 44.823 31.5565C46.0171 31.3995 47.2307 31.223 48.4443 31.0269L48.4052 30.615L48.4247 30.6346Z" fill="#FDC609"/>
<path id="Vector_3" d="M45.648 25.1636L30.1646 8.31593C29.8122 7.94328 29.3229 7.72754 28.8139 7.72754H19.7705C18.8505 7.72754 18.0871 8.414 17.9501 9.3162L17.7544 10.8068V10.846L16.1884 23.6141L15.7773 26.8895H23.8616C24.7816 26.8895 25.5646 26.2031 25.682 25.2812L26.1714 21.2213C26.3671 19.6719 28.2659 19.0443 29.3425 20.1818L35.0582 26.3207C35.4105 26.6934 35.8999 26.9091 36.3893 26.9091H47.2531L45.648 25.1832V25.1636Z" fill="#FDC609"/>
<path id="Vector_4" d="M71.7223 26.9091C72.6423 26.9091 73.4253 26.2227 73.5428 25.3008L73.993 21.6136L75.05 13.0231L75.4415 9.78691C75.5785 8.68858 74.7172 7.72754 73.6211 7.72754H64.2841C63.6381 7.72754 63.0509 8.06096 62.7181 8.61013L59.2338 14.3175C58.4313 15.6316 56.4738 15.4355 55.9453 13.9841L54.1249 8.94355C53.8704 8.21787 53.1658 7.72754 52.4023 7.72754H42.8696C41.9496 7.72754 41.1666 8.414 41.0492 9.33581L40.1487 16.7103C40.09 17.2399 40.2466 17.789 40.6185 18.1813L45.8058 23.8299C46.8628 24.987 48.7811 24.3594 48.9768 22.81C49.2117 20.9075 51.8347 20.5937 52.5198 22.3981L53.7726 25.7323C54.0466 26.458 54.7317 26.9287 55.4951 26.9287H57.0415C57.6679 26.9287 58.2551 26.5953 58.6075 26.0658L60.8389 22.4962C61.8764 20.8291 64.4602 21.7509 64.2253 23.6926L64.0883 24.8694C63.9513 25.9677 64.8126 26.9287 65.9087 26.9287H71.7811L71.7223 26.9091Z" fill="#FDC609"/>
</g>
<defs>
<clipPath id="clip0_482_181">
<rect width="92" height="34.3621" fill="white"/>
</clipPath>
</defs>
</svg>
