<svg width="1729" height="264" viewBox="0 0 1729 264" fill="none" xmlns="http://www.w3.org/2000/svg">
<path fill-rule="evenodd" clip-rule="evenodd" d="M1312 0H0V264H1312V0ZM174.041 237H216.624L280.499 109.25V237H386.957V24.0833H248.562L195.028 133.583L142.103 24.0833H3.70748V237H110.166V109.25L174.041 237ZM564.907 21.0417H546.657C478.828 21.0417 396.094 43.55 396.094 124.458V136.625C396.094 217.229 478.828 240.042 546.657 240.042H564.907C632.736 240.042 715.469 217.229 715.469 136.625V124.458C715.469 43.55 632.736 21.0417 564.907 21.0417ZM561.865 173.125H549.698C522.932 173.125 499.511 159.742 499.511 130.542C499.511 101.342 522.932 87.9583 549.698 87.9583H561.865C588.632 87.9583 612.053 101.342 612.053 130.542C612.053 159.742 588.632 173.125 561.865 173.125ZM794.541 237H922.595L1029.05 24.0833H911.645L858.416 151.833L805.491 24.0833H688.387L794.541 237ZM1296.61 24.0833H1035.02V237H1296.61V176.167H1141.48V156.396H1296.61V100.125H1141.48V81.875H1296.61V24.0833Z" fill="#151515"/>
</svg>
