<svg width="2500" height="264" viewBox="0 0 2500 264" fill="none" xmlns="http://www.w3.org/2000/svg">
<path fill-rule="evenodd" clip-rule="evenodd" d="M1694 0H0V264H1694V0ZM321.65 130.542V24.0833H215.192V130.542C215.192 155.179 191.771 172.517 168.046 172.517H155.879C132.459 172.517 108.734 155.179 108.734 130.542V24.0833H2.27523V130.542C2.27523 217.229 84.4002 240.042 155.879 240.042H168.046C239.525 240.042 321.65 217.229 321.65 130.542ZM656.186 183.467C656.186 152.746 630.94 130.846 601.436 129.629C630.636 129.629 653.144 106.817 653.144 75.7917C653.144 39.9 623.336 24.0833 573.149 24.0833H333.769V237H440.228V166.129H511.707C533.607 166.129 546.686 178.904 546.686 202.021V237H656.186V183.467ZM533.303 108.338H440.228V81.875H533.303C540.603 81.875 546.686 87.6542 546.686 95.2583C546.686 102.558 540.603 108.338 533.303 108.338ZM990.651 175.254C990.651 141.796 967.534 118.375 927.688 113.204C954.759 109.25 975.746 97.9958 975.746 69.4042C975.746 29.5583 935.292 24.0833 896.359 24.0833H668.234V237H911.567C960.538 237 990.651 213.579 990.651 175.254ZM774.692 81.875H858.338C864.421 81.875 869.288 86.7417 869.288 92.825C869.288 98.9083 864.421 103.775 858.338 103.775H774.692V81.875ZM867.767 177.992H774.692V151.529H867.767C875.067 151.529 881.151 157.308 881.151 164.608C881.151 171.908 875.067 177.992 867.767 177.992ZM1255.13 24.0833H1084.8L978.341 237H1095.45L1111.87 203.542H1228.06L1244.49 237H1361.52H1361.59H1469.5V130.542L1582.04 237H1691.54V24.0833H1585.08V115.333L1490.79 24.0833H1361.52V236.857L1255.13 24.0833ZM1142.9 139.667L1169.97 84.9167L1196.73 139.667H1142.9Z" fill="#151515"/>
</svg>
