<svg width="1372" height="48" viewBox="0 0 1372 48" fill="none" xmlns="http://www.w3.org/2000/svg">
<path d="M50.5506 47.1328H23.1134L0.368599 1.51284H25.4596L36.7994 28.8848L48.2044 1.51284H73.3605L50.5506 47.1328ZM99.7076 0.861131H103.618C118.151 0.861131 135.878 5.68381 135.878 23.0194V25.6263C135.878 42.8967 118.151 47.7845 103.618 47.7845H99.7076C85.1744 47.7845 67.4478 42.8967 67.4478 25.6263V23.0194C67.4478 5.68381 85.1744 0.861131 99.7076 0.861131ZM100.359 33.4468H102.966C108.701 33.4468 113.719 30.5793 113.719 24.3228C113.719 18.0664 108.701 15.1988 102.966 15.1988H100.359C94.6242 15.1988 89.606 18.0664 89.606 24.3228C89.606 30.5793 94.6242 33.4468 100.359 33.4468ZM154.815 47.1328V15.1988H136.501V1.51284H196.459V15.1988H177.625V47.1328H154.815ZM256.414 24.1273C262.736 24.388 268.145 29.0803 268.145 35.6626V47.1328H244.683V39.6381C244.683 34.6851 241.881 31.9479 237.189 31.9479H221.873V47.1328H199.063V1.51284H250.353C261.107 1.51284 267.493 4.90176 267.493 12.592C267.493 19.2395 262.671 24.1273 256.414 24.1273ZM221.873 19.5653H241.816C243.38 19.5653 244.683 18.3271 244.683 16.7629C244.683 15.1337 243.38 13.8954 241.816 13.8954H221.873V19.5653ZM270.726 47.1328V1.51284H326.774V13.8954H293.536V17.8057H326.774V29.8624H293.536V34.0985H326.774V47.1328H270.726ZM345.699 47.1328V1.51284H401.746V13.8954H368.509V19.1091H401.746V31.1658H368.509V47.1328H345.699ZM472.809 1.51284V24.3228C472.809 42.8967 455.212 47.7845 439.897 47.7845H437.29C421.975 47.7845 404.379 42.8967 404.379 24.3228V1.51284H427.189V24.3228C427.189 29.6017 432.272 33.3165 437.29 33.3165H439.897C444.98 33.3165 449.999 29.6017 449.999 24.3228V1.51284H472.809ZM493.718 47.1328V15.1988H475.405V1.51284H535.363V15.1988H516.528V47.1328H493.718ZM606.397 1.51284V24.3228C606.397 42.8967 588.801 47.7845 573.486 47.7845H570.879C555.564 47.7845 537.967 42.8967 537.967 24.3228V1.51284H560.777V24.3228C560.777 29.6017 565.861 33.3165 570.879 33.3165H573.486C578.569 33.3165 583.587 29.6017 583.587 24.3228V1.51284H606.397ZM666.345 24.1273C672.666 24.388 678.076 29.0803 678.076 35.6626V47.1328H654.614V39.6381C654.614 34.6851 651.812 31.9479 647.119 31.9479H631.804V47.1328H608.994V1.51284H660.284C671.037 1.51284 677.424 4.90176 677.424 12.592C677.424 19.2395 672.601 24.1273 666.345 24.1273ZM631.804 19.5653H651.746C653.31 19.5653 654.614 18.3271 654.614 16.7629C654.614 15.1337 653.31 13.8954 651.746 13.8954H631.804V19.5653ZM680.657 47.1328V1.51284H736.704V13.8954H703.467V17.8057H736.704V29.8624H703.467V34.0985H736.704V47.1328H680.657ZM755.63 47.1328V1.51284H811.677V13.8954H778.44V17.8057H811.677V29.8624H778.44V34.0985H811.677V47.1328H755.63ZM839.757 47.1328H813.036L831.219 23.6711L815.643 1.51284H840.408L848.881 15.1988L857.353 1.51284H882.118L866.607 23.6711L884.725 47.1328H858.005L848.881 32.7951L839.757 47.1328ZM886.036 1.51284H932.764C945.016 1.51284 953.162 7.89964 953.162 16.0461V19.9563C953.162 28.1679 945.016 34.5547 932.764 34.5547H908.846V47.1328H886.036V1.51284ZM908.846 20.8687H928.854C930.352 20.8687 931.656 19.5653 931.656 18.0012C931.656 16.4371 930.352 15.1988 928.854 15.1988H908.846V20.8687ZM955.153 47.1328V1.51284H1011.2V13.8954H977.963V17.8057H1011.2V29.8624H977.963V34.0985H1011.2V47.1328H955.153ZM1071.18 24.1273C1077.51 24.388 1082.91 29.0803 1082.91 35.6626V47.1328H1059.45V39.6381C1059.45 34.6851 1056.65 31.9479 1051.96 31.9479H1036.64V47.1328H1013.83V1.51284H1065.12C1075.88 1.51284 1082.26 4.90176 1082.26 12.592C1082.26 19.2395 1077.44 24.1273 1071.18 24.1273ZM1036.64 19.5653H1056.59C1058.15 19.5653 1059.45 18.3271 1059.45 16.7629C1059.45 15.1337 1058.15 13.8954 1056.59 13.8954H1036.64V19.5653ZM1085.5 1.51284H1108.31V47.1328H1085.5V1.51284ZM1110.89 47.1328V1.51284H1166.94V13.8954H1133.7V17.8057H1166.94V29.8624H1133.7V34.0985H1166.94V47.1328H1110.89ZM1169.57 47.1328V1.51284H1197.27L1217.47 21.0643V1.51284H1240.28V47.1328H1216.82L1192.71 24.3228V47.1328H1169.57ZM1313.09 21.0643H1290.35C1288.85 16.3719 1284.16 15.1988 1279.53 15.1988H1276.92C1271.45 15.1988 1265.71 16.9585 1265.71 24.3228C1265.71 31.6872 1271.45 33.4468 1276.92 33.4468H1279.53C1284.16 33.4468 1288.91 32.2086 1290.35 27.5814H1313.09C1313.09 45.308 1293.02 47.7845 1279.53 47.7845H1275.62C1260.63 47.7845 1242.25 42.8315 1242.25 25.6263V23.0194C1242.25 5.74898 1260.63 0.861131 1275.62 0.861131H1279.53C1292.56 0.861131 1313.09 3.33764 1313.09 21.0643ZM1315.06 47.1328V1.51284H1371.11V13.8954H1337.87V17.8057H1371.11V29.8624H1337.87V34.0985H1371.11V47.1328H1315.06Z" fill="#FDC609"/>
</svg>
