<svg width="1370" height="101" viewBox="0 0 1370 101" fill="none" xmlns="http://www.w3.org/2000/svg">
<path d="M146.73 1.69999V50.35C146.73 89.965 109.2 100.39 76.535 100.39H70.975C38.31 100.39 0.78 89.965 0.78 50.35V1.69999H49.43V50.35C49.43 61.609 60.272 69.532 70.975 69.532H76.535C87.377 69.532 98.08 61.609 98.08 50.35V1.69999H146.73ZM274.588 49.933C288.071 50.489 299.608 60.497 299.608 74.536V99H249.568V83.015C249.568 72.451 243.591 66.613 233.583 66.613H200.918V99H152.268V1.69999H261.661C284.596 1.69999 298.218 8.928 298.218 25.33C298.218 39.508 287.932 49.933 274.588 49.933ZM200.918 40.203H243.452C246.788 40.203 249.568 37.562 249.568 34.226C249.568 30.751 246.788 28.11 243.452 28.11H200.918V40.203ZM423.681 42.427C441.89 44.79 452.454 55.493 452.454 70.783C452.454 88.297 438.693 99 416.314 99H305.114V1.69999H409.364C427.156 1.69999 445.643 4.20199 445.643 22.411C445.643 35.477 436.052 40.62 423.681 42.427ZM391.989 28.11H353.764V38.118H391.989C394.769 38.118 396.993 35.894 396.993 33.114C396.993 30.334 394.769 28.11 391.989 28.11ZM353.764 72.034H396.298C399.634 72.034 402.414 69.254 402.414 65.918C402.414 62.582 399.634 59.941 396.298 59.941H353.764V72.034ZM495.479 1.69999H573.319L621.969 99H568.454L560.948 83.71H507.85L500.344 99H446.829L495.479 1.69999ZM534.399 29.5L522.028 54.52H546.631L534.399 29.5ZM621.936 99V1.69999H681.011L724.101 43.4V1.69999H772.751V99H722.711L671.281 50.35V99H621.936ZM875.611 99H856.151L826.961 40.62V99H778.311V1.69999H841.556L865.742 51.74L890.206 1.69999H953.451V99H904.801V40.62L875.611 99ZM1026.43 0.309995H1034.77C1065.77 0.309995 1103.58 10.596 1103.58 47.57V53.13C1103.58 89.965 1065.77 100.39 1034.77 100.39H1026.43C995.435 100.39 957.627 89.965 957.627 53.13V47.57C957.627 10.596 995.435 0.309995 1026.43 0.309995ZM1027.82 69.81H1033.38C1045.61 69.81 1056.32 63.694 1056.32 50.35C1056.32 37.006 1045.61 30.89 1033.38 30.89H1027.82C1015.59 30.89 1004.89 37.006 1004.89 50.35C1004.89 63.694 1015.59 69.81 1027.82 69.81ZM1198.23 99H1139.71L1091.2 1.69999H1144.72L1168.9 60.08L1193.23 1.69999H1246.88L1198.23 99ZM1249.61 99V1.69999H1369.15V28.11H1298.26V36.45H1369.15V62.165H1298.26V71.2H1369.15V99H1249.61Z" fill="#FDC608"/>
</svg>
