<svg width="189" height="38" viewBox="0 0 189 38" fill="none" xmlns="http://www.w3.org/2000/svg">
<g id="logo" clip-path="url(#clip0_294_331)">
<g id="Clip path group">
<mask id="mask0_294_331" style="mask-type:luminance" maskUnits="userSpaceOnUse" x="0" y="0" width="189" height="56">
<g id="clippath">
<path id="Vector" d="M189 0H0V56H189V0Z" fill="white"/>
</g>
</mask>
<g mask="url(#mask0_294_331)">
<g id="Group">
<path id="Vector_2" d="M188.961 12.626C188.208 7.96414 177.389 4.47944 158.515 2.82061C141.565 1.33272 119.936 1.43761 96.9017 3.10809C94.4415 3.28291 91.958 3.47715 89.4629 3.69082L89.5366 4.15311C91.892 3.9511 94.2242 3.76851 96.5291 3.60147C98.0386 3.4888 99.5132 3.40334 100.999 3.30233C145.962 0.509131 181.848 4.58821 183.229 13.1232C184.611 21.6582 151.01 31.7083 106.389 36.5915C104.915 36.7547 103.452 36.9101 101.946 37.0577C99.649 37.283 97.3207 37.5006 94.9653 37.7026L95.0391 38.1649C97.5342 37.9512 100.01 37.7181 102.458 37.4734C125.38 35.1969 146.466 31.6345 162.477 27.3145C180.308 22.5051 189.714 17.2878 188.961 12.6337" fill="#FDC608"/>
<path id="Vector_3" d="M99.4671 34.0079C97.1117 34.2099 94.7796 34.3925 92.4746 34.5595C90.9651 34.6683 89.4945 34.7693 88.0044 34.8587C43.0419 37.6596 7.1596 33.5806 5.77429 25.0378C4.39674 16.5144 37.9973 6.46436 82.6183 1.56945C84.0929 1.41406 85.5558 1.2509 87.0614 1.10327C89.3625 0.877953 91.6869 0.660402 94.0423 0.45839L93.9686 -0.00390625C91.4735 0.20976 88.9978 0.442851 86.5492 0.687596C63.6275 2.96411 42.5413 6.52651 26.5346 10.8465C8.69625 15.6598 -0.709899 20.8771 0.0429032 25.5312C0.795706 30.193 11.6143 33.6777 30.4887 35.3365C47.4384 36.8244 69.0679 36.7195 92.1021 35.049C94.5623 34.8742 97.0458 34.68 99.5409 34.4663L99.4671 34.004V34.0079Z" fill="#FDC608"/>
<path id="Vector_4" d="M78.7883 18.0802L79.3704 17.1284C79.6575 16.6583 80.3599 16.7282 80.55 17.2449L80.8992 18.1967C81.0545 18.6279 80.7402 19.0825 80.2823 19.0825H79.351C78.8387 19.0825 78.5205 18.5192 78.7883 18.0802ZM63.2782 21.2657H57.9659L58.1561 19.7584H63.4684C63.8836 19.7584 64.1785 20.0886 64.1242 20.5043C64.0737 20.92 63.6934 21.2657 63.2744 21.2657M58.6372 15.792H63.4141C63.74 15.792 64 16.0678 63.9496 16.4175C63.9146 16.7632 63.5848 17.039 63.2588 17.039H58.482L58.6372 15.792ZM51.2295 19.1213C51.2295 19.1213 51.2101 19.1058 51.2024 19.1019C50.8104 18.8066 50.8221 18.255 51.2334 17.9869C51.245 17.9792 51.2528 17.9714 51.2644 17.9675C51.7146 17.6645 52.3122 18.0763 52.2462 18.6163V18.6551C52.1802 19.1407 51.6137 19.4204 51.2295 19.1252M45.762 17.3032H40.4691L40.6592 15.7959H45.9521C46.3673 15.7959 46.6623 16.1261 46.6079 16.5573C46.5575 16.973 46.1772 17.3032 45.7581 17.3032M107.787 23.5345L97.9848 12.8823C97.7636 12.6453 97.457 12.5054 97.1311 12.5054H91.3919C90.806 12.5054 90.3093 12.9444 90.2394 13.5271L89.7078 17.8704C89.5604 19.0747 87.8957 19.2767 87.4688 18.1384L85.6295 13.2591C85.4587 12.8046 85.028 12.5054 84.543 12.5054H76.3009C75.9013 12.5054 75.5287 12.7113 75.3153 13.0532L70.2591 21.1803C70.2591 21.157 70.2708 21.1375 70.2746 21.1142C70.4066 19.9876 70.0651 19.063 69.3007 18.4337C68.7652 17.9947 68.8311 17.1672 69.3511 16.7088C69.7857 16.3242 70.0806 15.7998 70.1738 15.085C70.4493 12.8162 68.1831 12.5054 65.9674 12.5054H54.0195C53.4336 12.5054 52.9369 12.9444 52.8671 13.5271L52.7506 14.4867C52.4402 13.1309 50.9656 12.5054 48.6141 12.5054H30.314C29.7281 12.5054 29.2353 12.9444 29.1615 13.5271L28.5407 18.5697C28.3661 19.9721 26.9148 20.9588 25.5644 20.9588H24.8737C23.5427 20.9588 22.3126 19.9721 22.4872 18.5697L23.0072 13.0687C23.112 12.2218 22.0138 12.3695 21.2028 12.6414L17.6095 14.3935C17.1865 14.5372 16.88 14.9101 16.8257 15.353L16.4299 18.5697C15.8245 23.5073 20.3413 24.8048 24.4041 24.8048H25.0987C28.5174 24.8048 32.4638 23.8764 33.9966 20.6519L33.6667 23.3286C33.5813 24.0201 34.1207 24.6339 34.8192 24.6339H38.5366C39.1226 24.6339 39.6154 24.1988 39.6891 23.6161L39.9375 21.6193C40.0112 21.0365 40.504 20.6014 41.09 20.6014H44.1322C45.3778 20.6014 46.0181 21.3279 45.8629 22.6449L45.7775 23.3325C45.6922 24.024 46.2315 24.6339 46.93 24.6339H65.3426C66.6969 24.6339 67.8261 24.3153 68.6682 23.7404L68.1132 24.6339H74.124C74.5276 24.6339 74.904 24.4241 75.1135 24.0745L75.5947 23.2859C75.8042 22.9401 76.1806 22.7264 76.5881 22.7264H81.7413C82.2263 22.7264 82.661 23.0295 82.8317 23.484L82.9792 23.8764C83.1499 24.3309 83.5806 24.6339 84.0657 24.6339H93.9996C94.5855 24.6339 95.0822 24.1949 95.1521 23.6122L95.4664 21.0404C95.5867 20.0614 96.7935 19.6691 97.4687 20.3878L101.085 24.261C101.306 24.4979 101.613 24.63 101.935 24.63H108.803L107.794 23.5345H107.787Z" fill="#FDC608"/>
<path id="Vector_5" d="M137.821 18.5619C137.616 20.2246 136.195 20.986 134.674 20.986H133.983C132.458 20.986 131.213 20.2246 131.422 18.5619C131.613 16.8991 133.048 16.1377 134.569 16.1377H135.264C136.785 16.1377 138.015 16.8991 137.825 18.5619M168.674 24.6261C168.814 24.6261 168.954 24.5989 169.082 24.5523L174.177 22.6332L176.008 21.1647H165.527L165.667 20.0381H173.467C174.053 20.0381 174.546 19.603 174.619 19.0203L174.728 18.1384C174.813 17.4469 174.274 16.8331 173.575 16.8331H166.067L166.187 15.7958H173.987C174.573 15.7958 175.066 15.3607 175.139 14.778L175.26 13.8107C175.349 13.1153 174.806 12.5015 174.107 12.5015H155.268C154.841 12.5015 154.449 12.7346 154.247 13.1114L152.004 17.2876C151.511 18.2006 150.161 18.0607 149.866 17.0662L148.764 13.3329C148.617 12.8395 148.166 12.5015 147.65 12.5015H141.857L142.563 14.3662C141.038 12.8395 138.333 12.3306 135.904 12.3306H134.864C131.776 12.3306 128.05 13.158 126.39 15.8502L126.642 13.8107C126.727 13.1192 126.188 12.5054 125.489 12.5054H119.579C119.176 12.5054 118.799 12.7152 118.59 13.0609L116.386 16.6738C115.877 17.5052 114.632 17.3809 114.302 16.464L113.153 13.2746C112.987 12.8123 112.552 12.5054 112.063 12.5054H106.033C105.447 12.5054 104.95 12.9444 104.88 13.5271L104.31 18.1889C104.267 18.5269 104.376 18.8688 104.609 19.1174L107.892 22.6837C108.563 23.414 109.777 23.0217 109.898 22.0388C110.045 20.8345 111.71 20.6364 112.137 21.7707L112.928 23.8763C113.099 24.3308 113.53 24.63 114.015 24.63H114.989C115.388 24.63 115.761 24.4241 115.974 24.0822L117.383 21.8212C118.043 20.7646 119.672 21.3434 119.521 22.5788L119.428 23.3247C119.343 24.0201 119.882 24.63 120.581 24.63H124.298C124.884 24.63 125.381 24.191 125.45 23.6083L125.738 21.2774C126.739 23.9657 130.266 24.8048 133.355 24.8048H134.391C138.233 24.8048 143.11 23.5073 143.665 18.9154L143.751 18.2239C143.778 18.0024 143.782 17.7965 143.789 17.5906L146.168 23.8841C146.339 24.3347 146.77 24.6339 147.255 24.6339H153.075C153.479 24.6339 153.851 24.428 154.061 24.0861L157.604 18.3793C158.259 17.3226 159.893 17.8975 159.742 19.1329L159.226 23.3286C159.14 24.0201 159.68 24.6339 160.378 24.6339H168.682L168.674 24.6261Z" fill="#FDC608"/>
</g>
</g>
</g>
</g>
<defs>
<clipPath id="clip0_294_331">
<rect width="189" height="38" fill="white"/>
</clipPath>
</defs>
</svg>
