<svg width="1376" height="104" viewBox="0 0 1376 104" fill="none" xmlns="http://www.w3.org/2000/svg">
<path d="M0.169554 102.658V23.5005H48.2297L83.2854 57.4253V23.5005H122.864V102.658H82.1546L40.3139 63.0795V102.658H0.169554ZM182.259 22.3697H189.044C214.262 22.3697 245.02 30.7378 245.02 60.8178V65.3411C245.02 95.3081 214.262 103.789 189.044 103.789H182.259C157.042 103.789 126.283 95.3081 126.283 65.3411V60.8178C126.283 30.7378 157.042 22.3697 182.259 22.3697ZM183.39 78.9111H187.913C197.865 78.9111 206.572 73.9354 206.572 63.0795C206.572 52.2235 197.865 47.2479 187.913 47.2479H183.39C173.439 47.2479 164.732 52.2235 164.732 63.0795C164.732 73.9354 173.439 78.9111 183.39 78.9111ZM314.149 103.789H302.502C280.564 103.789 247.317 103.563 247.317 74.3878H293.681C293.681 80.8335 303.519 81.1727 308.834 81.1727C314.602 81.1727 323.083 80.7204 323.083 76.3102C323.083 70.9953 311.209 70.9953 295.717 70.9953C279.433 70.9953 248.448 69.8644 248.448 46.3432C248.448 23.5005 283.165 22.3697 301.597 22.3697H311.774C330.32 22.3697 364.923 23.5005 364.923 47.2479H320.821C320.821 41.1414 311.774 40.4629 307.364 40.4629C303.067 40.4629 295.717 41.2545 295.717 45.6647C295.717 50.6404 304.876 50.6404 320.821 50.6404C338.801 50.6404 369.447 50.6404 369.447 75.8578V78.1195C369.447 103.563 334.052 103.789 314.149 103.789ZM489.441 102.658H441.833L402.367 23.5005H445.904L465.58 70.9953L485.37 23.5005H529.02L489.441 102.658ZM531.239 102.658V23.5005H628.49V44.9862H570.818V51.7712H628.49V72.6915H570.818V80.0419H628.49V102.658H531.239ZM570.253 0.883935H607.004L595.696 20.108H561.771L570.253 0.883935ZM672.637 74.5008V102.658H633.058V23.5005H672.637V49.3965H714.477V23.5005H754.056V102.658H714.477V74.5008H672.637ZM758.619 23.5005H798.198V102.658H758.619V23.5005ZM924.499 57.4253H885.033C882.432 49.2834 874.29 47.2479 866.261 47.2479H861.738C852.239 47.2479 842.287 50.3011 842.287 63.0795C842.287 75.8578 852.239 78.9111 861.738 78.9111H866.261C874.29 78.9111 882.545 76.7625 885.033 68.7336H924.499C924.499 99.4921 889.669 103.789 866.261 103.789H859.476C833.467 103.789 801.578 95.195 801.578 65.3411V60.8178C801.578 30.8509 833.467 22.3697 859.476 22.3697H866.261C888.877 22.3697 924.499 26.6668 924.499 57.4253ZM1046.65 23.5005V63.0795C1046.65 95.3081 1016.12 103.789 989.542 103.789H985.019C958.445 103.789 927.912 95.3081 927.912 63.0795V23.5005H967.491V63.0795C967.491 72.2392 976.312 78.6849 985.019 78.6849H989.542C998.363 78.6849 1007.07 72.2392 1007.07 63.0795V23.5005H1046.65ZM1148.41 77.5541V102.658H1051.15V23.5005H1090.73V77.5541H1148.41ZM1152.97 102.658V23.5005H1250.22V44.9862H1192.55V51.7712H1250.22V72.6915H1192.55V80.0419H1250.22V102.658H1152.97ZM1320.52 103.789H1308.87C1286.93 103.789 1253.69 103.563 1253.69 74.3878H1300.05C1300.05 80.8335 1309.89 81.1727 1315.2 81.1727C1320.97 81.1727 1329.45 80.7204 1329.45 76.3102C1329.45 70.9953 1317.58 70.9953 1302.09 70.9953C1285.8 70.9953 1254.82 69.8644 1254.82 46.3432C1254.82 23.5005 1289.54 22.3697 1307.97 22.3697H1318.15C1336.69 22.3697 1371.29 23.5005 1371.29 47.2479H1327.19C1327.19 41.1414 1318.15 40.4629 1313.73 40.4629C1309.44 40.4629 1302.09 41.2545 1302.09 45.6647C1302.09 50.6404 1311.25 50.6404 1327.19 50.6404C1345.17 50.6404 1375.82 50.6404 1375.82 75.8578V78.1195C1375.82 103.563 1340.42 103.789 1320.52 103.789Z" fill="#FDC608"/>
</svg>
