<svg width="65" height="24" viewBox="0 0 65 24" fill="none" xmlns="http://www.w3.org/2000/svg">
<g clip-path="url(#clip0_294_350)">
<path d="M64.2434 7.94515C63.9837 5.01365 60.3059 2.82187 53.8939 1.78077C48.1381 0.849264 40.7826 0.917757 32.9487 1.95885C32.1147 2.06844 31.2671 2.19173 30.4194 2.32872L30.4468 2.61639C31.2534 2.4931 32.0464 2.36981 32.8257 2.27392C33.3452 2.20543 33.8374 2.15063 34.3432 2.08214C49.6283 0.328716 61.8372 2.89036 62.302 8.26022C62.7669 13.6301 51.3509 19.9452 36.1753 23.0273C35.6694 23.1369 35.1772 23.2328 34.6714 23.315C33.8921 23.452 33.0991 23.589 32.2925 23.726L32.3198 24.0136C33.1675 23.8767 34.0151 23.7397 34.8491 23.5753C42.642 22.1506 49.806 19.9041 55.2611 17.1917C61.3176 14.1643 64.5168 10.8904 64.2708 7.95885L64.2434 7.94515Z" fill="#FDC609"/>
<path d="M33.824 21.3973C33.0174 21.5205 32.2244 21.6438 31.4451 21.7397C30.9256 21.8082 30.4334 21.8767 29.9275 21.9315C14.6425 23.6986 2.43359 21.1233 1.96875 15.7534C1.49024 10.3836 12.9198 4.06849 28.0955 0.986301C28.6014 0.890411 29.0936 0.780822 29.5994 0.69863C30.3787 0.561644 31.1717 0.424657 31.9783 0.287671L31.951 0C31.1033 0.136986 30.2557 0.273973 29.4217 0.438356C21.6288 1.86301 14.4648 4.10959 9.00972 6.82192C2.95312 9.84931 -0.246077 13.137 0.0136864 16.0548C0.27345 18.9863 3.95116 21.1781 10.3632 22.2192C16.119 23.1507 23.4745 23.0822 31.3084 22.0411C32.1424 21.9315 32.99 21.8082 33.8377 21.6712L33.8103 21.3836L33.824 21.3973Z" fill="#FDC609"/>
<path d="M31.8829 17.5753L21.0685 5.80818C20.8224 5.5479 20.4806 5.39722 20.1252 5.39722H13.8088C13.1662 5.39722 12.633 5.87667 12.5373 6.50681L12.4006 7.5479V7.5753L11.3069 16.4931L11.0198 18.7808H16.6662C17.3088 18.7808 17.8557 18.3013 17.9377 17.6575L18.2795 14.8219C18.4162 13.7397 19.7424 13.3013 20.4943 14.0958L24.4865 18.3835C24.7326 18.6438 25.0744 18.7945 25.4162 18.7945H33.004L31.8829 17.589V17.5753Z" fill="#FDC609"/>
<path d="M50.0932 18.7945C50.7358 18.7945 51.2826 18.315 51.3647 17.6712L51.6791 15.0958L52.4174 9.09585L52.6908 6.83557C52.7865 6.06845 52.185 5.39722 51.4194 5.39722H44.8979C44.4468 5.39722 44.0366 5.63009 43.8042 6.01365L41.3706 9.99996C40.8101 10.9178 39.4429 10.7808 39.0737 9.76708L37.8023 6.24653C37.6245 5.73968 37.1323 5.39722 36.5992 5.39722H29.941C29.2984 5.39722 28.7515 5.87667 28.6695 6.5205L28.0406 11.6712C27.9996 12.0411 28.109 12.4246 28.3687 12.6986L31.9918 16.6438C32.73 17.452 34.0699 17.0137 34.2066 15.9315C34.3707 14.6027 36.2027 14.3835 36.6812 15.6438L37.5562 17.9726C37.7476 18.4794 38.2261 18.8082 38.7593 18.8082H39.8394C40.2769 18.8082 40.687 18.5753 40.9331 18.2054L42.4917 15.7123C43.2163 14.5479 45.021 15.1917 44.8569 16.5479L44.7612 17.3698C44.6655 18.1369 45.2671 18.8082 46.0327 18.8082H50.1342L50.0932 18.7945Z" fill="#FDC609"/>
</g>
<defs>
<clipPath id="clip0_294_350">
<rect width="64.2574" height="24" fill="white"/>
</clipPath>
</defs>
</svg>
